<svg id="Capa_1" enable-background="new 0 0 512 512" height="512" viewBox="0 0 512 512" width="512" xmlns="http://www.w3.org/2000/svg"><g><path d="m361 8.787v91.213h91.213z"/><path d="m149.565 250.713h53.077l-26.417-69.999z"/><path d="m346 130c-8.284 0-15-6.716-15-15v-115h-265c-8.284 0-15 6.716-15 15v482c0 8.284 6.716 15 15 15h380c8.284 0 15-6.716 15-15v-367zm-80 40h15v-15c0-8.284 6.716-15 15-15s15 6.716 15 15v15h15c8.284 0 15 6.716 15 15s-6.716 15-15 15h-15v15c0 8.284-6.716 15-15 15s-15-6.716-15-15v-15h-15c-8.284 0-15-6.716-15-15s6.716-15 15-15zm-21.542 149.034c-1.744.658-3.534.97-5.294.97-6.062 0-11.77-3.701-14.036-9.708l-11.164-29.583h-75.824l-11.283 29.626c-2.949 7.742-11.615 11.627-19.356 8.679-7.742-2.948-11.627-11.615-8.679-19.356l60.08-157.747c.043-.114.088-.227.134-.339 2.873-7.024 9.633-11.568 17.222-11.575h.019c7.582 0 14.341 4.528 17.226 11.541.056.136.109.272.161.409l59.534 157.753c2.923 7.751-.99 16.405-8.74 19.33zm141.542 130.966h-120c-8.284 0-15-6.716-15-15s6.716-15 15-15h120c8.284 0 15 6.716 15 15s-6.716 15-15 15zm0-60h-120c-8.284 0-15-6.716-15-15s6.716-15 15-15h120c8.284 0 15 6.716 15 15s-6.716 15-15 15z"/></g></svg>