<svg xmlns="http://www.w3.org/2000/svg" xmlns:xlink="http://www.w3.org/1999/xlink" viewBox="0 0 577.28 169.98"><defs><style>.cls-1{fill:#5facd3;}.cls-2{fill:url(#未命名漸層_7);}</style><linearGradient id="未命名漸層_7" x1="45.88" y1="103.97" x2="112.99" y2="26.05" gradientTransform="matrix(0.99, 0.16, -0.16, 0.99, 54.64, -10.93)" gradientUnits="userSpaceOnUse"><stop offset="0" stop-color="#59a96a"/><stop offset="0.99" stop-color="#eac746"/></linearGradient></defs><title>logo-dwave-02</title><g id="圖層_1" data-name="圖層 1"><path class="cls-1" d="M154.78,137.22c.31,3.28-.3,6-1.93,8-5.13,6.33-19.27,4.2-37.1-4.25-13-6.15-27.89-15.64-42.71-27.66C57.83,101,45.22,88,36.49,76.38,25,61.06,20.28,48,25.32,41.82c1.63-2,4.17-3.16,7.44-3.53-8.76-1.73-15.35-.8-18.62,3.24-6.43,7.92,1.48,25.85,18.65,46.15-.17.8-.32,1.61-.45,2.42a52.81,52.81,0,0,0,73.13,56.77c23.85,13,43.47,17.27,50,9.24C158.72,152.07,158.27,145.44,154.78,137.22Z"/><path class="cls-2" d="M197,20a9.85,9.85,0,0,1-9.4,3.78c-2.83-.45-5.5-2.75-7.48-5.81a22.69,22.69,0,0,0-35.17-4.67,22.73,22.73,0,0,1,28.33,15.57,25.25,25.25,0,0,0-26.19-11.91,26,26,0,0,0-3.91,1c-.28.09-.56.19-.83.3a3.25,3.25,0,0,0-1.57,1.73,7.26,7.26,0,0,0-.21.92s-.07.32-.09.45,0,.35-.06.53l-8.48,53.31A52.8,52.8,0,0,0,67.26,48.47c-1.45.5-2.87,1.07-4.26,1.69A53,53,0,0,0,41,68.41l.81,1.1c8.72,11.64,21.34,24.61,36.55,36.94,14.82,12,29.74,21.51,42.71,27.66l1.61.75a52.56,52.56,0,0,0,13.48-25.61c.05-.25.09-.51.14-.77h0l.25-1.59c0-.07,0-.14,0-.21l0-.2.28-1.77L146.63,44A28.7,28.7,0,0,0,197,20Z"/><path class="cls-1" d="M219.69,46.53h32.67A77.19,77.19,0,0,1,272.68,49a37.41,37.41,0,0,1,15.34,8,30.45,30.45,0,0,1,8.78,14.11q2.64,8.61.76,20.78a53,53,0,0,1-6.15,17.75,48.71,48.71,0,0,1-11.3,13.52,49.25,49.25,0,0,1-15.39,8.61,55.56,55.56,0,0,1-18.33,3H205.75Zm22.36,61.83h2a29.41,29.41,0,0,0,7.55-.94,19.48,19.48,0,0,0,6.44-3,18,18,0,0,0,4.8-5.16,19.7,19.7,0,0,0,2.63-7.43q1.53-9.37-2.86-13.53t-13.18-4.16h-2Z"/><path class="cls-1" d="M309.69,138.69a27.94,27.94,0,0,1,4.68-.38c3.16,0,5.41.76,6.9,2.12a7.78,7.78,0,0,1,2.42,6.12,9.1,9.1,0,0,1-2.45,6.62c-1.62,1.59-4.24,2.45-7.55,2.45a36.77,36.77,0,0,1-4-.2Zm2.2,15.06a17.56,17.56,0,0,0,2.22.1c4.73,0,7.26-2.63,7.26-7.23,0-4-2.25-6.57-6.9-6.57a12.2,12.2,0,0,0-2.58.23Z"/><path class="cls-1" d="M337.59,147.48H331v6.14h7.38v1.85h-9.6v-17H338v1.85h-7v5.38h6.6Z"/><path class="cls-1" d="M352.29,147.48h-6.6v6.14h7.38v1.85h-9.6v-17h9.22v1.85h-7v5.38h6.6Z"/><path class="cls-1" d="M358.2,138.64a25.1,25.1,0,0,1,4.22-.33,7,7,0,0,1,4.77,1.41,4.68,4.68,0,0,1,1.5,3.57,5,5,0,0,1-1.32,3.64,7.1,7.1,0,0,1-5.21,1.87,7.86,7.86,0,0,1-1.76-.15v6.82h-2.2Zm2.2,8.21a7.15,7.15,0,0,0,1.82.18c2.65,0,4.27-1.32,4.27-3.62s-1.62-3.36-4-3.36a9.23,9.23,0,0,0-2.07.18Z"/><path class="cls-1" d="M376.69,155.47l-4.32-17h2.33l2,8.62c.5,2.13,1,4.25,1.26,5.89h0c.28-1.69.81-3.71,1.39-5.91l2.28-8.6H384l2.07,8.65c.48,2,.93,4,1.19,5.84h.05c.35-1.87.83-3.77,1.36-5.89l2.25-8.6h2.25l-4.83,17H386l-2.14-8.87a50.14,50.14,0,0,1-1.12-5.56h0a46.37,46.37,0,0,1-1.31,5.56L379,155.47Z"/><path class="cls-1" d="M398.87,150.11l-1.77,5.36h-2.27l5.81-17h2.63l5.81,17h-2.35l-1.82-5.36Zm5.62-1.72-1.7-4.9c-.38-1.11-.63-2.12-.88-3.11h-.05c-.26,1-.51,2.05-.86,3.08l-1.67,4.93Z"/><path class="cls-1" d="M416.26,155.47l-5.59-17h2.4l2.65,8.4c.71,2.3,1.34,4.37,1.82,6.36h0c.48-2,1.17-4.12,2-6.34l2.88-8.42h2.35l-6.09,17Z"/><path class="cls-1" d="M437.68,147.48h-6.6v6.14h7.39v1.85h-9.61v-17h9.23v1.85h-7v5.38h6.6Z"/><path class="cls-1" d="M463.1,154.94a10.93,10.93,0,0,1-4.5.81c-4.8,0-8.39-3-8.39-8.65,0-5.35,3.61-8.94,8.89-8.94a9.33,9.33,0,0,1,4,.75l-.56,1.8a7.84,7.84,0,0,0-3.41-.71c-4,0-6.65,2.55-6.65,7,0,4.19,2.4,6.85,6.52,6.85a8.86,8.86,0,0,0,3.62-.71Z"/><path class="cls-1" d="M482.17,146.78c0,5.83-3.56,9-7.91,9-4.52,0-7.65-3.52-7.65-8.67,0-5.41,3.33-9,7.88-9S482.17,141.7,482.17,146.78Zm-13.24.25c0,3.66,2,6.92,5.46,6.92s5.46-3.21,5.46-7.07c0-3.42-1.77-6.95-5.44-6.95S468.93,143.31,468.93,147Z"/><path class="cls-1" d="M485.83,154.15a1.51,1.51,0,0,1,1.52-1.59,1.48,1.48,0,0,1,1.49,1.59,1.51,1.51,0,1,1-3,0Z"/><path class="cls-1" d="M492.42,158.6a37,37,0,0,0,1.52-6.06l2.48-.26a32.47,32.47,0,0,1-2.43,6.15Z"/><path class="cls-1" d="M509.05,138.43h2.22v15.19h7.28v1.85h-9.5Z"/><path class="cls-1" d="M524.28,140.31H519.1v-1.88h12.61v1.88h-5.2v15.16h-2.23Z"/><path class="cls-1" d="M535.88,138.69a27.91,27.91,0,0,1,4.67-.38c3.16,0,5.41.76,6.9,2.12a7.78,7.78,0,0,1,2.43,6.12,9.14,9.14,0,0,1-2.45,6.62c-1.62,1.59-4.25,2.45-7.56,2.45a36.71,36.71,0,0,1-4-.2Zm2.19,15.06a17.63,17.63,0,0,0,2.23.1c4.73,0,7.25-2.63,7.25-7.23,0-4-2.25-6.57-6.9-6.57a12.35,12.35,0,0,0-2.58.23Z"/><path class="cls-1" d="M326.67,60.57l2,37.41h.5q.75-2.91,1.66-5.82t2.08-5.74l10.72-25.85h17.46L363.75,98h.5c.44-1.83.93-3.69,1.45-5.57a52.11,52.11,0,0,1,1.87-5.49l10.48-26.35h23.69l-32,62.68H349.87l-1.75-34.08h-.75c-.38,1.61-.77,3.2-1.16,4.78a37.66,37.66,0,0,1-1.5,4.7l-10.22,24.6H315.12L303.06,60.57Z"/><path class="cls-1" d="M405,123.25H381l31.56-62.44h25.09l12.42,62.44h-24l-.83-7.78H408.09Zm18.55-22.61-.91-11c-.11-1.33-.16-2.65-.16-4V81.6h-.83l-7.21,19Z"/><path class="cls-1" d="M514.15,60.81l-34,62.44H460.9L446.58,60.81h23.68l3.81,28.4a45.44,45.44,0,0,1,.42,4.6,22.75,22.75,0,0,1-.34,4.68h.5a30.88,30.88,0,0,1,1.2-4.68q.79-2.28,1.86-4.6l12.76-28.4Z"/><path class="cls-1" d="M514.36,77.09a24.52,24.52,0,0,1,19.74,0c10.45,4.68,20.13-.84,20.13-.84l2.69-16.9s-9.67,5.51-20.13.83a24.57,24.57,0,0,0-19.74,0Z"/><path class="cls-1" d="M548.84,100.37l2.46-15.54a26.29,26.29,0,0,1-7.87,1.65,30.57,30.57,0,0,1-7.84-1.36c-1-.33-2.36-.78-3-1.08a24.54,24.54,0,0,0-19.73,0l-6.21,39.22h40.84l2.61-16.33H531.11l1-6.55Z"/></g></svg>