<svg height="512pt" viewBox="0 -42 512.00138 512" width="512pt" xmlns="http://www.w3.org/2000/svg"><path d="m512 34.503906v-19.734375c0-8.15625-6.613281-14.769531-14.769531-14.769531h-44.304688c-5.835937 0-11.121093 3.433594-13.492187 8.761719-2.375 5.328125-1.390625 11.550781 2.511718 15.886719l13.71875 15.242187-177.265624 94.542969-71.03125-71.03125c-4.28125-4.28125-10.746094-5.515625-16.304688-3.113282l-182.152344 78.769532c-7.484375 3.238281-10.929687 11.929687-7.691406 19.417968 3.191406 7.386719 12.023438 10.890626 19.417969 7.695313l172.941406-74.789063 71.671875 71.675782c4.597656 4.597656 11.660156 5.648437 17.394531 2.585937l193.378907-103.132812 10.230468 11.367187c4.042969 4.496094 10.617188 6.078125 16.269532 3.910156 5.707031-2.191406 9.476562-7.671874 9.476562-13.789062v-29.394531c0-.035157 0-.070313 0-.101563zm0 0"/><path d="m126.035156 167.179688v261.125h66.953125v-289.917969c-.652343.179687-1.292969.398437-1.925781.671875zm0 0"/><path d="m319.015625 428.304688h66.953125v-272.472657l-66.953125 35.707031zm0 0"/><path d="m222.527344 157.328125v270.976563h66.953125v-221.011719l-11.082031 5.910156zm0 0"/><path d="m.00390625 231.382812v182.152344c0 8.15625 6.61328175 14.769532 14.76953175 14.769532h81.722656v-248.351563l-87.585938 37.875c-5.40625 2.335937-8.90624975 7.664063-8.90624975 13.554687zm0 0"/><path d="m504.832031 100.566406c-4.449219-2.667968-9.972656-2.808594-14.550781-.367187l-74.769531 39.878906v288.226563h81.71875c8.160156 0 14.769531-6.613282 14.769531-14.769532v-300.304687c0-5.1875-2.722656-9.996094-7.167969-12.664063zm0 0"/></svg>